<svg width="100%" height="100%" viewBox="0 0 296 218" version="1.1" xmlns="http://www.w3.org/2000/svg" xmlns:xlink="http://www.w3.org/1999/xlink" xml:space="preserve" xmlns:serif="http://www.serif.com/" style="fill-rule:evenodd;clip-rule:evenodd;stroke-linecap:round;stroke-linejoin:round;stroke-miterlimit:1.5;">
    <g transform="matrix(0.424164,0,0,0.424164,-72.359108,-110.372785)">
        <g transform="matrix(24.630305,0,0,24.630305,-516.152936,-3481.791823)">
            <g transform="matrix(1,0,0,1,0.574312,-0.287156)">
                <path d="M37.505,167.266L36.866,167.91L32.929,164.623L36.866,161.336L37.505,161.987L34.311,164.612L37.505,167.266Z" style="fill:rgb(198,127,255);fill-rule:nonzero;"/>
            </g>
            <path d="M44.39,159.537L40.37,169.076L39.397,169.076L43.417,159.537L44.39,159.537Z" style="fill:rgb(198,127,255);fill-rule:nonzero;"/>
            <g transform="matrix(1,0,0,1,-0.861468,-0.095719)">
                <path d="M46.546,161.987L47.179,161.336L51.116,164.623L47.179,167.91L46.546,167.266L49.739,164.635L46.546,161.987Z" style="fill:rgb(198,127,255);fill-rule:nonzero;"/>
            </g>
        </g>
    </g>
    <g transform="matrix(1.085003,0,0,0.997926,10.835495,-0.528634)">
        <g transform="matrix(0.921656,0,0,1.002078,-10.40384,0.625655)">
            <path d="M2.572,39.445L293.421,39.379C293.421,39.379 294.191,17.88 293.595,12.394C293.342,10.069 292.364,7.428 290.718,5.767C289.039,4.074 286.059,2.274 283.524,2.236C237.326,1.539 59.186,2.134 12.654,2.28C9.924,2.288 7.263,4.471 5.563,6.382C3.862,8.293 2.429,12.155 2.453,13.745C2.949,46.596 2.25,170.179 2.889,202.808C2.937,205.25 3.92,207.348 6.017,210.203C8.317,213.334 11.26,214.433 14.442,214.492C60.339,215.342 236.007,215.269 281.672,214.623C284.291,214.586 288.027,212.825 289.859,210.952C291.843,208.925 293.48,205.671 293.573,202.459C294.405,173.921 293.421,39.379 293.421,39.379" style="fill:none;stroke:rgb(198,127,255);stroke-width:4px;"/>
        </g>
        <g transform="matrix(1.034011,0,0,1.104691,-13.839169,-2.711793)">
            <ellipse cx="27.349" cy="22.131" rx="5.588" ry="5.854" style="fill:rgb(235,235,235);fill-opacity:0;stroke:rgb(198,127,255);stroke-width:3.6px;"/>
        </g>
        <g transform="matrix(1.034011,0,0,1.104691,27.847651,-2.643534)">
            <ellipse cx="27.349" cy="22.131" rx="5.588" ry="5.854" style="fill:rgb(235,235,235);fill-opacity:0;stroke:rgb(198,127,255);stroke-width:3.6px;"/>
        </g>
        <g transform="matrix(1.034011,0,0,1.104691,6.941458,-2.643534)">
            <ellipse cx="27.349" cy="22.131" rx="5.588" ry="5.854" style="fill:rgb(235,235,235);fill-opacity:0;stroke:rgb(198,127,255);stroke-width:3.6px;"/>
        </g>
    </g>
</svg>
