<?xml version="1.0" encoding="UTF-8" standalone="no"?>
<!DOCTYPE svg PUBLIC "-//W3C//DTD SVG 1.1//EN" "http://www.w3.org/Graphics/SVG/1.1/DTD/svg11.dtd">
<svg width="100%" height="100%" viewBox="0 0 268 216" version="1.1" xmlns="http://www.w3.org/2000/svg" xmlns:xlink="http://www.w3.org/1999/xlink" xml:space="preserve" xmlns:serif="http://www.serif.com/" style="fill-rule:evenodd;clip-rule:evenodd;stroke-linecap:round;stroke-linejoin:round;stroke-miterlimit:1.5;">
    <g transform="matrix(1,0,0,1,-98.149254,-142.787156)">
        <g transform="matrix(1,0,0,1,-18,0)">
            <path d="M117.492,181.556L381.507,181.153C381.507,181.153 382.718,315.696 382.153,344.091C382.1,346.738 380.943,349.716 379.166,351.68C377.363,353.671 373.871,355.981 370.931,356.039C329.233,356.86 169.315,356.79 127.926,356.184C125.698,356.152 122.504,354.028 121.047,352.342C119.315,350.337 118.258,347.696 118.178,344.543C117.35,311.839 116.983,188.846 117.629,156.183C117.682,153.483 119.416,150.249 121.407,148.436C123.399,146.623 126.386,144.63 129.319,144.581C171.152,143.884 330.683,143.645 372.404,144.413C375.62,144.301 377.943,146.457 379.644,149.148C381.085,151.43 381.786,153.246 381.769,155.883C381.734,161.434 381.507,181.153 381.507,181.153" style="fill:none;stroke:url(#_Linear1);stroke-width:4px;"/>
        </g>
        <g transform="matrix(0.575443,0,0,0.575443,92.883253,113.289756)">
            <path d="M225.922,198.493L230.606,198.083C230.828,199.96 231.344,201.5 232.154,202.703C232.965,203.906 234.223,204.879 235.93,205.621C237.636,206.364 239.556,206.735 241.689,206.735C243.583,206.735 245.255,206.453 246.706,205.89C248.156,205.327 249.236,204.555 249.944,203.573C250.652,202.592 251.006,201.522 251.006,200.361C251.006,199.184 250.665,198.156 249.982,197.277C249.3,196.398 248.173,195.66 246.604,195.063C245.597,194.67 243.37,194.06 239.923,193.233C236.476,192.405 234.061,191.624 232.679,190.89C230.887,189.952 229.552,188.787 228.673,187.397C227.794,186.006 227.355,184.449 227.355,182.725C227.355,180.831 227.893,179.061 228.968,177.414C230.043,175.767 231.613,174.517 233.677,173.664C234.435,173.351 238.33,171.923 238.33,171.923L238.5,165.509L243.357,165.575L243.446,171.979C243.446,171.979 246.865,173.282 247.922,173.728C250.046,174.624 251.68,175.942 252.823,177.683C253.967,179.423 254.581,181.394 254.666,183.595L249.905,183.954C249.65,181.582 248.784,179.79 247.307,178.579C245.831,177.367 243.651,176.761 240.768,176.761C237.764,176.761 235.576,177.312 234.202,178.412C232.828,179.513 232.142,180.84 232.142,182.392C232.142,183.741 232.628,184.85 233.601,185.72C234.556,186.59 237.052,187.482 241.088,188.395C245.123,189.308 247.892,190.105 249.394,190.788C251.578,191.795 253.19,193.07 254.231,194.615C255.272,196.159 255.793,197.938 255.793,199.952C255.793,201.948 255.221,203.829 254.078,205.596C252.934,207.362 251.292,208.735 249.15,209.717C248.143,210.178 243.497,210.598 243.497,210.598L243.501,215.152L238.355,215.212L238.302,210.471C238.302,210.471 234.599,210.228 233.383,209.704C231.088,208.714 229.288,207.225 227.982,205.237C226.677,203.249 225.99,201.001 225.922,198.493Z" style="fill-opacity:0;stroke:url(#_Linear2);stroke-width:6.95px;stroke-linecap:butt;stroke-miterlimit:2;"/>
        </g>
        <path d="M267.566,314.262C267.566,314.262 213.153,314.229 201.34,314.262C199.051,314.108 197.406,311.308 196.373,309.497C195.34,307.685 195.444,305.184 196.133,303.268C196.822,301.352 198.67,298.933 201.006,298.21C212.673,298.177 266.524,298.419 266.524,298.419C266.524,298.419 277.969,262.848 280.475,255.195C280.81,254.081 280.937,252.515 280.604,251.707C280.282,250.929 279.315,250.363 278.472,250.35C262.921,250.29 187.293,250.35 187.293,250.35L201.006,298.21C201.006,298.21 185.657,245.39 182.256,233.881C176.662,233.856 165.505,233.789 165.505,233.789" style="fill:none;stroke:url(#_Linear3);stroke-width:4px;"/>
        <g transform="matrix(1.591397,0,0,1.409524,-85.502581,-65.819994)">
            <ellipse cx="140.567" cy="162.571" rx="4.693" ry="5.298" style="fill:rgb(247,247,247);fill-opacity:0;stroke:url(#_Linear4);stroke-width:2.66px;"/>
        </g>
        <g transform="matrix(1.591397,0,0,1.409524,-63.200261,-65.819994)">
            <ellipse cx="140.567" cy="162.571" rx="4.693" ry="5.298" style="fill:rgb(247,247,247);fill-opacity:0;stroke:url(#_Linear5);stroke-width:2.66px;"/>
        </g>
        <g transform="matrix(1.591397,0,0,1.409524,-40.191532,-65.819994)">
            <ellipse cx="140.567" cy="162.571" rx="4.693" ry="5.298" style="fill:rgb(247,247,247);fill-opacity:0;stroke:url(#_Linear6);stroke-width:2.66px;"/>
        </g>
        <g transform="matrix(4.336685,0,0,3.781174,-378.11261,-391.513537)">
            <ellipse cx="140.567" cy="162.571" rx="4.693" ry="5.298" style="fill:rgb(247,247,247);fill-opacity:0;stroke:url(#_Linear7);stroke-width:0.98px;"/>
        </g>
        <g transform="matrix(1.591397,0,0,1.409524,-12.40538,93.459507)">
            <ellipse cx="140.567" cy="162.571" rx="4.693" ry="5.298" style="fill:rgb(247,247,247);fill-opacity:0;stroke:url(#_Linear8);stroke-width:2.66px;"/>
        </g>
        <g transform="matrix(1.591397,0,0,1.409524,33.339319,93.459507)">
            <ellipse cx="140.567" cy="162.571" rx="4.693" ry="5.298" style="fill:rgb(247,247,247);fill-opacity:0;stroke:url(#_Linear9);stroke-width:2.66px;"/>
        </g>
        <path d="M211.293,260.575L219.177,286.986L211.293,260.575Z" style="fill:none;stroke:url(#_Linear10);stroke-width:4px;"/>
        <g transform="matrix(1,0,0,1,-0.504579,0.161672)">
            <path d="M233.368,260.575L233.762,286.986L233.368,260.575Z" style="fill:none;stroke:url(#_Linear11);stroke-width:4px;"/>
        </g>
        <path d="M255.049,260.575L247.362,286.986L255.049,260.575Z" style="fill:none;stroke:url(#_Linear12);stroke-width:4px;"/>
    </g>
    <defs>
        <linearGradient id="_Linear1" x1="0" y1="0" x2="1" y2="0" gradientUnits="userSpaceOnUse" gradientTransform="matrix(265.003749,0,0,212.709733,99.299254,250.292023)"><stop offset="0" style="stop-color:rgb(198,127,255);stop-opacity:1"/><stop offset="1" style="stop-color:rgb(198,127,255);stop-opacity:1"/></linearGradient>
        <linearGradient id="_Linear2" x1="0" y1="0" x2="1" y2="0" gradientUnits="userSpaceOnUse" gradientTransform="matrix(265.003749,0,0,212.709733,99.299254,250.292023)"><stop offset="0" style="stop-color:rgb(198,127,255);stop-opacity:1"/><stop offset="1" style="stop-color:rgb(198,127,255);stop-opacity:1"/></linearGradient>
        <linearGradient id="_Linear3" x1="0" y1="0" x2="1" y2="0" gradientUnits="userSpaceOnUse" gradientTransform="matrix(265.003749,0,0,212.709733,99.299254,250.292023)"><stop offset="0" style="stop-color:rgb(198,127,255);stop-opacity:1"/><stop offset="1" style="stop-color:rgb(198,127,255);stop-opacity:1"/></linearGradient>
        <linearGradient id="_Linear4" x1="0" y1="0" x2="1" y2="0" gradientUnits="userSpaceOnUse" gradientTransform="matrix(265.003749,0,0,212.709733,99.299254,250.292023)"><stop offset="0" style="stop-color:rgb(198,127,255);stop-opacity:1"/><stop offset="1" style="stop-color:rgb(198,127,255);stop-opacity:1"/></linearGradient>
        <linearGradient id="_Linear5" x1="0" y1="0" x2="1" y2="0" gradientUnits="userSpaceOnUse" gradientTransform="matrix(265.003749,0,0,212.709733,99.299254,250.292023)"><stop offset="0" style="stop-color:rgb(198,127,255);stop-opacity:1"/><stop offset="1" style="stop-color:rgb(198,127,255);stop-opacity:1"/></linearGradient>
        <linearGradient id="_Linear6" x1="0" y1="0" x2="1" y2="0" gradientUnits="userSpaceOnUse" gradientTransform="matrix(265.003749,0,0,212.709733,99.299254,250.292023)"><stop offset="0" style="stop-color:rgb(198,127,255);stop-opacity:1"/><stop offset="1" style="stop-color:rgb(198,127,255);stop-opacity:1"/></linearGradient>
        <linearGradient id="_Linear7" x1="0" y1="0" x2="1" y2="0" gradientUnits="userSpaceOnUse" gradientTransform="matrix(265.003749,0,0,212.709733,99.299254,250.292023)"><stop offset="0" style="stop-color:rgb(198,127,255);stop-opacity:1"/><stop offset="1" style="stop-color:rgb(198,127,255);stop-opacity:1"/></linearGradient>
        <linearGradient id="_Linear8" x1="0" y1="0" x2="1" y2="0" gradientUnits="userSpaceOnUse" gradientTransform="matrix(265.003749,0,0,212.709733,99.299254,250.292023)"><stop offset="0" style="stop-color:rgb(198,127,255);stop-opacity:1"/><stop offset="1" style="stop-color:rgb(198,127,255);stop-opacity:1"/></linearGradient>
        <linearGradient id="_Linear9" x1="0" y1="0" x2="1" y2="0" gradientUnits="userSpaceOnUse" gradientTransform="matrix(265.003749,0,0,212.709733,99.299254,250.292023)"><stop offset="0" style="stop-color:rgb(198,127,255);stop-opacity:1"/><stop offset="1" style="stop-color:rgb(198,127,255);stop-opacity:1"/></linearGradient>
        <linearGradient id="_Linear10" x1="0" y1="0" x2="1" y2="0" gradientUnits="userSpaceOnUse" gradientTransform="matrix(265.003749,0,0,212.709733,99.299254,250.292023)"><stop offset="0" style="stop-color:rgb(198,127,255);stop-opacity:1"/><stop offset="1" style="stop-color:rgb(198,127,255);stop-opacity:1"/></linearGradient>
        <linearGradient id="_Linear11" x1="0" y1="0" x2="1" y2="0" gradientUnits="userSpaceOnUse" gradientTransform="matrix(265.003749,0,0,212.709733,99.299254,250.292023)"><stop offset="0" style="stop-color:rgb(198,127,255);stop-opacity:1"/><stop offset="1" style="stop-color:rgb(198,127,255);stop-opacity:1"/></linearGradient>
        <linearGradient id="_Linear12" x1="0" y1="0" x2="1" y2="0" gradientUnits="userSpaceOnUse" gradientTransform="matrix(265.003749,0,0,212.709733,99.299254,250.292023)"><stop offset="0" style="stop-color:rgb(198,127,255);stop-opacity:1"/><stop offset="1" style="stop-color:rgb(198,127,255);stop-opacity:1"/></linearGradient>
    </defs>
</svg>
