<?xml version="1.0" encoding="UTF-8" standalone="no"?>
<!DOCTYPE svg PUBLIC "-//W3C//DTD SVG 1.1//EN" "http://www.w3.org/Graphics/SVG/1.1/DTD/svg11.dtd">
<svg width="100%" height="100%" viewBox="0 0 295 216" version="1.1" xmlns="http://www.w3.org/2000/svg" xmlns:xlink="http://www.w3.org/1999/xlink" xml:space="preserve" xmlns:serif="http://www.serif.com/" style="fill-rule:evenodd;clip-rule:evenodd;stroke-linecap:round;stroke-linejoin:round;stroke-miterlimit:1.5;">
    <g>
        <path d="M2.572,39.445L293.421,39.379C293.421,39.379 294.191,17.88 293.595,12.394C293.342,10.069 292.364,7.428 290.718,5.767C289.039,4.074 286.059,2.274 283.524,2.236C237.326,1.539 59.186,2.134 12.654,2.28C9.924,2.288 7.263,4.471 5.563,6.382C3.862,8.293 2.429,12.155 2.453,13.745C2.949,46.596 2.25,170.179 2.889,202.808C2.937,205.25 3.92,207.348 6.017,210.203C8.317,213.334 11.26,214.433 14.442,214.492C60.339,215.342 236.007,215.269 281.672,214.623C284.291,214.586 288.027,212.825 289.859,210.952C291.843,208.925 293.48,205.671 293.573,202.459C294.405,173.921 293.421,39.379 293.421,39.379" style="fill:none;stroke:rgb(198,127,255);stroke-width:4px;"/>
        <path d="M165.486,78.091L178.65,63.082C178.65,63.082 169.319,61.481 165.417,62.484C161.515,63.487 157.223,65.487 154.387,68.587C151.489,71.757 149.085,78.022 148.024,81.503C147.25,84.043 147.596,86.965 148.024,89.47C148.446,91.939 150.595,96.532 150.595,96.532L111.697,139.245C111.697,139.245 109.524,137.983 106.908,137.613C104.191,137.229 100.999,137.742 99.504,138.1C96.488,138.823 92.894,140.204 90.454,142.054C87.618,144.204 84.106,148.466 82.488,151.002C81.321,152.83 80.843,155.103 80.744,157.269C80.617,160.066 81.33,165.431 81.725,167.786C82.469,172.221 83.305,171.369 83.305,171.369L96.902,156.179L110.267,157.337L114.258,169.394L100.253,185.878C100.253,185.878 109.508,187.522 113.55,186.478C117.591,185.433 121.599,182.768 124.503,179.612C127.407,176.455 130.342,172.062 130.974,167.541C131.608,163.012 128.442,152.436 128.442,152.436L166.624,110.154C166.624,110.154 175.331,111.517 179.43,110.427C183.528,109.337 188.194,106.467 191.214,103.615C194.145,100.847 196.505,96.709 197.549,93.312C198.537,90.1 197.856,86.012 197.481,83.231C197.171,80.932 195.301,76.623 195.301,76.623L181.882,91.541L169.553,90.911L165.486,78.091Z" style="fill:none;stroke:rgb(198,127,255);stroke-width:4px;"/>
        <path d="M160.654,145.188L166.093,142.287L166.257,136.932L175.602,137.178L175.657,142.654L181.341,145.829L186.202,141.415L192.359,147.736L188.381,152.477L190.057,158.308L197.549,158.431L197.549,167.177L190.071,167.667L188.313,172.98L192.359,177.49L186.011,183.961L181.341,179.533L175.698,181.863L175.684,188.28L165.603,188.171L165.712,181.305L160.535,179.193L155.794,183.389L149.254,176.795L154.077,172.054L152.034,166.891L145.195,166.918L145.304,157.518L152.129,157.49L153.709,152.082L149.513,146.741L156.27,140.911L160.654,145.188Z" style="fill:none;stroke:rgb(198,127,255);stroke-width:4px;"/>
        <g transform="matrix(1.121905,0,0,1.1024,-3.727342,-3.330526)">
            <ellipse cx="27.349" cy="22.131" rx="5.588" ry="5.854" style="fill:rgb(235,235,235);fill-opacity:0;stroke:rgb(198,127,255);stroke-width:3.6px;"/>
        </g>
        <g transform="matrix(1.121905,0,0,1.1024,41.502983,-3.262408)">
            <ellipse cx="27.349" cy="22.131" rx="5.588" ry="5.854" style="fill:rgb(235,235,235);fill-opacity:0;stroke:rgb(198,127,255);stroke-width:3.6px;"/>
        </g>
        <g transform="matrix(1.851072,0,0,1.826832,120.372267,121.856925)">
            <ellipse cx="27.349" cy="22.131" rx="5.588" ry="5.854" style="fill:rgb(235,235,235);fill-opacity:0;stroke:rgb(198,127,255);stroke-width:2.18px;"/>
        </g>
        <g transform="matrix(1.121905,0,0,1.1024,18.819701,-3.262408)">
            <ellipse cx="27.349" cy="22.131" rx="5.588" ry="5.854" style="fill:rgb(235,235,235);fill-opacity:0;stroke:rgb(198,127,255);stroke-width:3.6px;"/>
        </g>
    </g>
</svg>
