<?xml version="1.0" encoding="UTF-8" standalone="no"?>
<!DOCTYPE svg PUBLIC "-//W3C//DTD SVG 1.1//EN" "http://www.w3.org/Graphics/SVG/1.1/DTD/svg11.dtd">
<svg width="100%" height="100%" viewBox="0 0 229 131" version="1.1" xmlns="http://www.w3.org/2000/svg" xmlns:xlink="http://www.w3.org/1999/xlink" xml:space="preserve" xmlns:serif="http://www.serif.com/" style="fill-rule:evenodd;clip-rule:evenodd;stroke-linecap:round;stroke-linejoin:round;stroke-miterlimit:1.5;">
    <g transform="matrix(1.044964,0,0,1.044964,0.231463,-16.350004)">
        <path d="M11.676,118.403L17.689,140L11.392,140L10.11,135.317L3.607,135.317L2.231,140L-0.222,140L6.17,118.403L11.676,118.403ZM4.224,133.149L9.525,133.149L6.977,123.577L4.224,133.149Z" style="fill:url(#_Linear1);fill-rule:nonzero;"/>
        <path d="M36.01,118.403L30.615,125.223L38.573,140L31.596,140L26.533,130.539L25.631,131.551L25.631,140L19.366,140L19.366,118.403L25.631,118.403L25.631,128.023L33.067,118.403L36.01,118.403Z" style="fill:url(#_Linear2);fill-rule:nonzero;"/>
        <path d="M73.539,118.403L67.654,140L63.572,140L60.565,128.213L57.512,140L53.43,140L47.861,118.403L54.158,118.403L57.433,131.504L60.708,118.403L64.394,118.403L67.622,131.551L71.071,118.403L73.539,118.403Z" style="fill:url(#_Linear3);fill-rule:nonzero;"/>
        <path d="M86.339,134.162L88.665,134.842C88.422,138.523 86.249,140.364 82.146,140.364C76.83,140.364 74.172,137.711 74.172,132.406C74.172,129.832 74.879,127.722 76.292,126.077C77.706,124.431 79.515,123.609 81.719,123.609C86.328,123.609 88.633,126.583 88.633,132.532L80.216,132.532C80.216,136.709 81.276,138.798 83.396,138.798C85.379,138.798 86.371,137.616 86.371,135.253C86.371,134.937 86.36,134.573 86.339,134.162ZM80.2,130.744L83.649,130.744C83.649,127.031 83.09,125.175 81.972,125.175C80.96,125.175 80.39,126.552 80.263,129.305L80.2,130.744Z" style="fill:url(#_Linear4);fill-rule:nonzero;"/>
        <path d="M91.054,140L91.054,118.403C91.993,118.403 93.918,118.293 96.829,118.071L96.829,125.745C97.905,124.342 99.102,123.64 100.42,123.64C104.196,123.64 106.084,126.256 106.084,131.488C106.084,137.395 103.838,140.348 99.344,140.348C97.224,140.348 95.415,139.351 93.918,137.358L92.494,140L91.054,140ZM98.632,125.966C97.356,125.966 96.718,127.812 96.718,131.504C96.718,135.849 97.34,138.022 98.585,138.022C99.671,138.022 100.215,136.888 100.215,134.621L100.31,130.713L100.199,128.513C100.03,126.815 99.508,125.966 98.632,125.966Z" style="fill:url(#_Linear5);fill-rule:nonzero;"/>
        <path d="M132.633,124.447L129.722,124.985C129.849,124.405 129.912,123.92 129.912,123.53C129.912,121.019 128.388,119.764 125.339,119.764C122.935,119.764 121.732,120.629 121.732,122.359C121.732,123.656 123.077,124.769 125.767,125.697C130.956,127.48 133.551,130.117 133.551,133.608C133.551,135.654 132.823,137.297 131.367,138.536C129.912,139.776 127.976,140.396 125.561,140.396C120.213,140.396 117.539,138.323 117.539,134.178C117.539,133.84 117.566,133.423 117.618,132.928L120.64,132.263C120.408,133.181 120.292,133.977 120.292,134.652C120.292,137.331 121.827,138.671 124.896,138.671C127.354,138.671 128.583,137.706 128.583,135.776C128.583,134.341 127.111,133.081 124.169,131.994C119.918,130.433 117.792,127.939 117.792,124.511C117.792,122.57 118.502,121.006 119.92,119.819C121.339,118.633 123.203,118.039 125.513,118.039C130.26,118.039 132.633,120.175 132.633,124.447Z" style="fill:url(#_Linear6);fill-rule:nonzero;"/>
        <path d="M147.458,134.162L149.784,134.842C149.541,138.523 147.368,140.364 143.265,140.364C137.949,140.364 135.291,137.711 135.291,132.406C135.291,129.832 135.998,127.722 137.411,126.077C138.825,124.431 140.634,123.609 142.838,123.609C147.448,123.609 149.752,126.583 149.752,132.532L141.335,132.532C141.335,136.709 142.395,138.798 144.515,138.798C146.498,138.798 147.49,137.616 147.49,135.253C147.49,134.937 147.479,134.573 147.458,134.162ZM141.319,130.744L144.768,130.744C144.768,127.031 144.209,125.175 143.091,125.175C142.079,125.175 141.509,126.552 141.383,129.305L141.319,130.744Z" style="fill:url(#_Linear7);fill-rule:nonzero;"/>
        <path d="M163.691,129.842L159.736,129.842C159.873,129.22 159.994,128.761 160.1,128.466C160.247,128.034 160.321,127.643 160.321,127.295C160.321,126.62 160.079,126.283 159.593,126.283C159.224,126.283 158.871,126.728 158.533,127.62C158.196,128.511 158.027,129.452 158.027,130.444L158.027,140L152.252,140L152.252,124.052L153.375,124.068C154.704,124.068 156.255,123.925 158.027,123.64L158.027,126.267C158.966,124.516 160.115,123.64 161.476,123.64C163.333,123.64 164.261,124.664 164.261,126.71C164.261,127.248 164.171,127.865 163.992,128.561C163.929,128.846 163.828,129.273 163.691,129.842Z" style="fill:url(#_Linear8);fill-rule:nonzero;"/>
        <path d="M179.038,124.052L173.675,140L169.656,140L164.118,124.052L170.273,124.052L173.659,134.731L177.14,124.052L179.038,124.052Z" style="fill:url(#_Linear9);fill-rule:nonzero;"/>
        <path d="M183.263,117.865C185.056,117.865 185.952,118.562 185.952,119.954C185.952,121.346 185.056,122.042 183.263,122.042C181.47,122.042 180.573,121.346 180.573,119.954C180.573,118.562 181.47,117.865 183.263,117.865ZM180.336,140L180.336,124.068C182.139,124.068 184.064,123.925 186.111,123.64L186.111,140L180.336,140Z" style="fill:url(#_Linear10);fill-rule:nonzero;"/>
        <path d="M200.698,132.88L203.135,133.624L203.15,134.273C203.15,138.323 200.935,140.348 196.505,140.348C191.253,140.348 188.626,137.685 188.626,132.358C188.626,129.69 189.391,127.562 190.92,125.974C192.45,124.387 194.501,123.593 197.075,123.593C200.777,123.593 202.628,125.27 202.628,128.624L199.923,129.937L199.955,128.419C199.955,126.14 199.19,125.001 197.66,125.001C195.635,125.001 194.623,127.237 194.623,131.709C194.623,134.473 194.839,136.369 195.271,137.397C195.704,138.426 196.505,138.94 197.676,138.94C199.817,138.94 200.888,137.553 200.888,134.779C200.888,134.389 200.825,133.756 200.698,132.88Z" style="fill:url(#_Linear11);fill-rule:nonzero;"/>
        <path d="M216.599,134.162L218.925,134.842C218.682,138.523 216.509,140.364 212.406,140.364C207.09,140.364 204.432,137.711 204.432,132.406C204.432,129.832 205.139,127.722 206.552,126.077C207.966,124.431 209.775,123.609 211.979,123.609C216.588,123.609 218.893,126.583 218.893,132.532L210.476,132.532C210.476,136.709 211.536,138.798 213.656,138.798C215.639,138.798 216.631,137.616 216.631,135.253C216.631,134.937 216.62,134.573 216.599,134.162ZM210.46,130.744L213.909,130.744C213.909,127.031 213.35,125.175 212.232,125.175C211.22,125.175 210.65,126.552 210.523,129.305L210.46,130.744Z" style="fill:url(#_Linear12);fill-rule:nonzero;"/>
    </g>
    <g transform="matrix(1,0,0,1,-6.203297,-1.253666)">
        <path d="M81.172,43.563C81.172,43.563 68.259,43.491 61.997,43.497C61.537,46.33 59.604,48.795 55.462,49.248C53.569,49.351 48.74,47.899 48.603,42.497C48.478,41.602 49.266,35.815 55.451,35.746C61.99,36.107 62.049,42.25 62.106,41.543C64.05,41.526 82.281,41.62 82.281,41.62L90.487,30.601L91.847,28.846L77.534,28.676C77.534,28.676 76.721,33.485 70.999,33.832C67.351,33.62 64.554,31.3 64.262,27.05C64.131,26.545 64.751,20.603 71.013,20.299C76.897,20.479 77.851,26.068 77.764,26.504L93.157,26.399C93.157,26.399 105.527,9.355 108.859,5.464C109.853,4.303 110.827,2.643 112.348,2.486C116.017,2.105 129.416,2.23 129.416,2.23L129.501,35.165C129.501,35.165 159.954,35.168 167.154,35.165C167.23,34.03 168.782,29.709 173.776,29.588C176.813,29.454 180.577,32.022 180.528,36.339C180.517,42.164 174.836,43.22 173.776,43.09C170.819,43.265 167.285,40.564 167.244,37.42C159.942,37.425 129.526,37.505 129.526,37.505L129.569,44.356L161.565,44.526L172.373,55.887L179.546,55.873C179.546,55.873 180.267,50.932 186.064,50.683C190.327,50.767 192.819,53.938 192.815,57.434C192.822,60.866 189.971,64.209 186.488,64.185C182.951,64.506 179.841,61.829 179.406,58.487C173.344,58.39 171.735,58.355 171.735,58.355L159.765,46.441L129.529,46.636L129.573,85.644L112.391,85.578L112.325,69.511L90.714,69.598L102.391,54.446L112.674,54.359L112.478,29.512C112.454,28.032 111.952,27.704 110.583,29.468C99.265,44.998 78.887,73.213 71.528,83.644C68.726,87.615 61.883,88.487 57.661,84.84C53.698,81.415 55.558,77.292 56.548,75.644C60.064,69.791 81.172,43.563 81.172,43.563ZM55.344,38.772C53.294,38.772 51.63,40.436 51.63,42.486C51.63,44.535 53.294,46.199 55.344,46.199C57.393,46.199 59.057,44.535 59.057,42.486C59.057,40.436 57.393,38.772 55.344,38.772ZM186.28,53.626C184.23,53.626 182.566,55.29 182.566,57.34C182.566,59.39 184.23,61.054 186.28,61.054C188.33,61.054 189.994,59.39 189.994,57.34C189.994,55.29 188.33,53.626 186.28,53.626ZM71.117,23.399C69.067,23.399 67.403,25.063 67.403,27.113C67.403,29.163 69.067,30.827 71.117,30.827C73.167,30.827 74.831,29.163 74.831,27.113C74.831,25.063 73.167,23.399 71.117,23.399ZM173.952,32.733C171.902,32.733 170.238,34.397 170.238,36.447C170.238,38.497 171.902,40.161 173.952,40.161C176.002,40.161 177.666,38.497 177.666,36.447C177.666,34.397 176.002,32.733 173.952,32.733Z" style="fill:url(#_Linear13);stroke:white;stroke-opacity:0;stroke-width:0.4px;"/>
        <path d="M134.587,54.318L156.333,54.365L174.836,76.254C174.836,76.254 177.341,80.952 172.771,85.593C167.974,90.464 160.901,84.086 160.901,84.086L134.587,54.318Z" style="fill:url(#_Linear14);"/>
        <path d="M135.323,28.212L156.188,28.386L169.75,12.274C169.75,12.274 171.688,6.454 167.838,3C164.048,-0.399 157.811,2.21 157.811,2.21L135.323,28.212Z" style="fill:url(#_Linear15);"/>
    </g>
    <defs>
        <linearGradient id="_Linear1" x1="0" y1="0" x2="1" y2="0" gradientUnits="userSpaceOnUse" gradientTransform="matrix(219.146218,0,0,22.530086,-0.221504,129.130499)"><stop offset="0" style="stop-color:rgb(34,173,237);stop-opacity:1"/><stop offset="1" style="stop-color:rgb(175,86,219);stop-opacity:1"/></linearGradient>
        <linearGradient id="_Linear2" x1="0" y1="0" x2="1" y2="0" gradientUnits="userSpaceOnUse" gradientTransform="matrix(219.146218,0,0,22.530086,-0.221504,129.130499)"><stop offset="0" style="stop-color:rgb(34,173,237);stop-opacity:1"/><stop offset="1" style="stop-color:rgb(175,86,219);stop-opacity:1"/></linearGradient>
        <linearGradient id="_Linear3" x1="0" y1="0" x2="1" y2="0" gradientUnits="userSpaceOnUse" gradientTransform="matrix(219.146218,0,0,22.530086,-0.221504,129.130499)"><stop offset="0" style="stop-color:rgb(34,173,237);stop-opacity:1"/><stop offset="1" style="stop-color:rgb(175,86,219);stop-opacity:1"/></linearGradient>
        <linearGradient id="_Linear4" x1="0" y1="0" x2="1" y2="0" gradientUnits="userSpaceOnUse" gradientTransform="matrix(219.146218,0,0,22.530086,-0.221504,129.130499)"><stop offset="0" style="stop-color:rgb(34,173,237);stop-opacity:1"/><stop offset="1" style="stop-color:rgb(175,86,219);stop-opacity:1"/></linearGradient>
        <linearGradient id="_Linear5" x1="0" y1="0" x2="1" y2="0" gradientUnits="userSpaceOnUse" gradientTransform="matrix(219.146218,0,0,22.530086,-0.221504,129.130499)"><stop offset="0" style="stop-color:rgb(34,173,237);stop-opacity:1"/><stop offset="1" style="stop-color:rgb(175,86,219);stop-opacity:1"/></linearGradient>
        <linearGradient id="_Linear6" x1="0" y1="0" x2="1" y2="0" gradientUnits="userSpaceOnUse" gradientTransform="matrix(219.146218,0,0,22.530086,-0.221504,129.130499)"><stop offset="0" style="stop-color:rgb(34,173,237);stop-opacity:1"/><stop offset="1" style="stop-color:rgb(175,86,219);stop-opacity:1"/></linearGradient>
        <linearGradient id="_Linear7" x1="0" y1="0" x2="1" y2="0" gradientUnits="userSpaceOnUse" gradientTransform="matrix(219.146218,0,0,22.530086,-0.221504,129.130499)"><stop offset="0" style="stop-color:rgb(34,173,237);stop-opacity:1"/><stop offset="1" style="stop-color:rgb(175,86,219);stop-opacity:1"/></linearGradient>
        <linearGradient id="_Linear8" x1="0" y1="0" x2="1" y2="0" gradientUnits="userSpaceOnUse" gradientTransform="matrix(219.146218,0,0,22.530086,-0.221504,129.130499)"><stop offset="0" style="stop-color:rgb(34,173,237);stop-opacity:1"/><stop offset="1" style="stop-color:rgb(175,86,219);stop-opacity:1"/></linearGradient>
        <linearGradient id="_Linear9" x1="0" y1="0" x2="1" y2="0" gradientUnits="userSpaceOnUse" gradientTransform="matrix(219.146218,0,0,22.530086,-0.221504,129.130499)"><stop offset="0" style="stop-color:rgb(34,173,237);stop-opacity:1"/><stop offset="1" style="stop-color:rgb(175,86,219);stop-opacity:1"/></linearGradient>
        <linearGradient id="_Linear10" x1="0" y1="0" x2="1" y2="0" gradientUnits="userSpaceOnUse" gradientTransform="matrix(219.146218,0,0,22.530086,-0.221504,129.130499)"><stop offset="0" style="stop-color:rgb(34,173,237);stop-opacity:1"/><stop offset="1" style="stop-color:rgb(175,86,219);stop-opacity:1"/></linearGradient>
        <linearGradient id="_Linear11" x1="0" y1="0" x2="1" y2="0" gradientUnits="userSpaceOnUse" gradientTransform="matrix(219.146218,0,0,22.530086,-0.221504,129.130499)"><stop offset="0" style="stop-color:rgb(34,173,237);stop-opacity:1"/><stop offset="1" style="stop-color:rgb(175,86,219);stop-opacity:1"/></linearGradient>
        <linearGradient id="_Linear12" x1="0" y1="0" x2="1" y2="0" gradientUnits="userSpaceOnUse" gradientTransform="matrix(219.146218,0,0,22.530086,-0.221504,129.130499)"><stop offset="0" style="stop-color:rgb(34,173,237);stop-opacity:1"/><stop offset="1" style="stop-color:rgb(175,86,219);stop-opacity:1"/></linearGradient>
        <linearGradient id="_Linear13" x1="0" y1="0" x2="1" y2="0" gradientUnits="userSpaceOnUse" gradientTransform="matrix(144.223293,0,0,84.940737,48.591651,44.680727)"><stop offset="0" style="stop-color:rgb(34,173,237);stop-opacity:1"/><stop offset="0.53" style="stop-color:rgb(136,110,224);stop-opacity:1"/><stop offset="1" style="stop-color:rgb(175,86,219);stop-opacity:1"/></linearGradient>
        <linearGradient id="_Linear14" x1="0" y1="0" x2="1" y2="0" gradientUnits="userSpaceOnUse" gradientTransform="matrix(40.934523,0,0,33.107821,134.586864,70.87217)"><stop offset="0" style="stop-color:rgb(137,95,220);stop-opacity:1"/><stop offset="0.43" style="stop-color:rgb(147,88,221);stop-opacity:1"/><stop offset="1" style="stop-color:rgb(168,72,223);stop-opacity:1"/></linearGradient>
        <linearGradient id="_Linear15" x1="0" y1="0" x2="1" y2="0" gradientUnits="userSpaceOnUse" gradientTransform="matrix(34.915311,0,0,27.132479,135.322683,14.819905)"><stop offset="0" style="stop-color:rgb(131,112,194);stop-opacity:1"/><stop offset="0.44" style="stop-color:rgb(141,100,204);stop-opacity:1"/><stop offset="1" style="stop-color:rgb(165,73,228);stop-opacity:1"/></linearGradient>
    </defs>
</svg>
