<?xml version="1.0" encoding="UTF-8" standalone="no"?>
<!DOCTYPE svg PUBLIC "-//W3C//DTD SVG 1.1//EN" "http://www.w3.org/Graphics/SVG/1.1/DTD/svg11.dtd">
<svg width="100%" height="100%" viewBox="0 0 145 87" version="1.1" xmlns="http://www.w3.org/2000/svg" xmlns:xlink="http://www.w3.org/1999/xlink" xml:space="preserve" xmlns:serif="http://www.serif.com/" style="fill-rule:evenodd;clip-rule:evenodd;stroke-linecap:round;stroke-linejoin:round;stroke-miterlimit:1.5;">
    <g transform="matrix(1,0,0,1,-48.391329,-1.253313)">
        <path d="M81.172,43.563C81.172,43.563 68.259,43.491 61.997,43.497C61.537,46.33 59.604,48.795 55.462,49.248C53.569,49.351 48.74,47.899 48.603,42.497C48.478,41.602 49.266,35.815 55.451,35.746C61.99,36.107 62.049,42.25 62.106,41.543C64.05,41.526 82.281,41.62 82.281,41.62L90.487,30.601L91.847,28.846L77.534,28.676C77.534,28.676 76.721,33.485 70.999,33.832C67.351,33.62 64.554,31.3 64.262,27.05C64.131,26.545 64.751,20.603 71.013,20.299C76.897,20.479 77.851,26.068 77.764,26.504L93.157,26.399C93.157,26.399 105.527,9.355 108.859,5.464C109.853,4.303 110.827,2.643 112.348,2.486C116.017,2.105 129.416,2.23 129.416,2.23L129.501,35.165C129.501,35.165 159.954,35.168 167.154,35.165C167.23,34.03 168.782,29.709 173.776,29.588C176.813,29.454 180.577,32.022 180.528,36.339C180.517,42.164 174.836,43.22 173.776,43.09C170.819,43.265 167.285,40.564 167.244,37.42C159.942,37.425 129.526,37.505 129.526,37.505L129.569,44.356L161.565,44.526L172.373,55.887L179.546,55.873C179.546,55.873 180.267,50.932 186.064,50.683C190.327,50.767 192.819,53.938 192.815,57.434C192.822,60.866 189.971,64.209 186.488,64.185C182.951,64.506 179.841,61.829 179.406,58.487C173.344,58.39 171.735,58.355 171.735,58.355L159.765,46.441L129.529,46.636L129.573,85.644L112.391,85.578L112.325,69.511L90.714,69.598L102.391,54.446L112.674,54.359L112.478,29.512C112.454,28.032 111.952,27.704 110.583,29.468C99.265,44.998 78.887,73.213 71.528,83.644C68.726,87.615 61.883,88.487 57.661,84.84C53.698,81.415 55.558,77.292 56.548,75.644C60.064,69.791 81.172,43.563 81.172,43.563ZM55.344,38.772C53.294,38.772 51.63,40.436 51.63,42.486C51.63,44.535 53.294,46.199 55.344,46.199C57.393,46.199 59.057,44.535 59.057,42.486C59.057,40.436 57.393,38.772 55.344,38.772ZM186.28,53.626C184.23,53.626 182.566,55.29 182.566,57.34C182.566,59.39 184.23,61.054 186.28,61.054C188.33,61.054 189.994,59.39 189.994,57.34C189.994,55.29 188.33,53.626 186.28,53.626ZM71.117,23.399C69.067,23.399 67.403,25.063 67.403,27.113C67.403,29.163 69.067,30.827 71.117,30.827C73.167,30.827 74.831,29.163 74.831,27.113C74.831,25.063 73.167,23.399 71.117,23.399ZM173.952,32.733C171.902,32.733 170.238,34.397 170.238,36.447C170.238,38.497 171.902,40.161 173.952,40.161C176.002,40.161 177.666,38.497 177.666,36.447C177.666,34.397 176.002,32.733 173.952,32.733Z" style="fill:url(#_Linear1);stroke:white;stroke-opacity:0;stroke-width:0.4px;"/>
        <path d="M134.587,54.318L156.333,54.365L174.836,76.254C174.836,76.254 177.341,80.952 172.771,85.593C167.974,90.464 160.901,84.086 160.901,84.086L134.587,54.318Z" style="fill:url(#_Linear2);"/>
        <path d="M135.323,28.212L156.188,28.386L169.75,12.274C169.75,12.274 171.688,6.454 167.838,3C164.048,-0.399 157.811,2.21 157.811,2.21L135.323,28.212Z" style="fill:url(#_Linear3);"/>
    </g>
    <defs>
        <linearGradient id="_Linear1" x1="0" y1="0" x2="1" y2="0" gradientUnits="userSpaceOnUse" gradientTransform="matrix(144.223293,0,0,144.223293,48.591651,44.680727)"><stop offset="0" style="stop-color:rgb(34,173,237);stop-opacity:1"/><stop offset="0.53" style="stop-color:rgb(136,110,224);stop-opacity:1"/><stop offset="1" style="stop-color:rgb(175,86,219);stop-opacity:1"/></linearGradient>
        <linearGradient id="_Linear2" x1="0" y1="0" x2="1" y2="0" gradientUnits="userSpaceOnUse" gradientTransform="matrix(40.934523,0,0,40.934523,134.586864,70.87217)"><stop offset="0" style="stop-color:rgb(137,95,220);stop-opacity:1"/><stop offset="0.43" style="stop-color:rgb(147,88,221);stop-opacity:1"/><stop offset="1" style="stop-color:rgb(168,72,223);stop-opacity:1"/></linearGradient>
        <linearGradient id="_Linear3" x1="0" y1="0" x2="1" y2="0" gradientUnits="userSpaceOnUse" gradientTransform="matrix(34.915311,0,0,34.915311,135.322683,14.819905)"><stop offset="0" style="stop-color:rgb(131,112,194);stop-opacity:1"/><stop offset="0.44" style="stop-color:rgb(141,100,204);stop-opacity:1"/><stop offset="1" style="stop-color:rgb(165,73,228);stop-opacity:1"/></linearGradient>
    </defs>
</svg>
